/vscmnt/brussel_pixiu_data/_data_brussel/112/vsc11236/PredSimResults/SUBJ11mtu3D/weighted-LRposFixed/trackIG/worker_02.mot
version=1
nRows=5
nColumns=50
inDegrees=yes
endheader
                time	         pelvis_tilt	         pelvis_list	     pelvis_rotation	           pelvis_tx	           pelvis_ty	           pelvis_tz	       hip_flexion_r	     hip_adduction_r	      hip_rotation_r	        knee_angle_r	       ankle_angle_r	         mtp_angle_r	       hip_flexion_l	     hip_adduction_l	      hip_rotation_l	        knee_angle_l	       ankle_angle_l	         mtp_angle_l	    lumbar_extension	      lumbar_bending	     lumbar_rotation	 ercspn_r/activation	 intobl_r/activation	 extobl_r/activation	    abd_r/activation	    add_r/activation	hamstrings_r/activation	bifemsh_r/activation	glut_max_r/activation	iliopsoas_r/activation	rect_fem_r/activation	  vasti_r/activation	gastroc_r/activation	 soleus_r/activation	tib_ant_r/activation	 ercspn_l/activation	 intobl_l/activation	 extobl_l/activation	    abd_l/activation	    add_l/activation	hamstrings_l/activation	bifemsh_l/activation	glut_max_l/activation	iliopsoas_l/activation	rect_fem_l/activation	  vasti_l/activation	gastroc_l/activation	 soleus_l/activation	tib_ant_l/activation	
          2.11860765	         -5.93901824	          5.01244572	         -8.24167919	          2.20335196	          0.94073684	          0.01739992	        -12.25700958	         -5.57248500	          4.30686469	         -7.41787501	         12.44565069	         26.97747372	         31.15261786	          1.36376834	         -4.22471016	         -4.05760614	          5.46335391	          0.20726698	         -4.16871245	         -3.15736555	          2.04685546	          0.03163732	          0.00999999	          0.00999999	          0.05425787	          0.02007710	          0.02449234	          0.12966441	          0.05425787	          0.43076279	          0.01000000	          0.00999999	          0.34063817	          0.25689749	          0.01047317	          0.09028658	          0.15443372	          0.02656198	          0.01235401	          0.08702884	          0.04920358	          0.21260415	          0.01133026	          0.08706822	          0.01104183	          0.00999999	          0.01392832	          0.00999999	          0.28008009	
          2.13273170	         -6.07323839	          4.85818065	         -8.28289298	          2.22128060	          0.93857782	          0.01664955	        -12.49231305	         -5.49039669	          3.90448776	         -8.74084744	         11.91100535	         28.97073454	         31.18590758	          1.39687591	         -4.27630267	         -5.47333788	          4.99186429	          0.21802516	         -3.86478160	         -3.42626893	          2.26368218	          0.06853381	          0.00999999	          0.00999999	          0.04391924	          0.04035014	          0.01982542	          0.10495736	          0.04391924	          0.43089113	          0.01000000	          0.01370119	          0.31159016	          0.24240307	          0.00999999	          0.07308282	          0.12569827	          0.02150070	          0.01000000	          0.12376490	          0.04567984	          0.17209325	          0.05753746	          0.07047771	          0.00999999	          0.00999999	          0.02039647	          0.01526214	          0.29373308	
          2.14685575	         -6.18246013	          4.69738781	         -8.27052413	          2.23962681	          0.93673365	          0.01580892	        -12.57833783	         -5.39353803	          3.47665521	        -10.40710325	         11.23452821	         31.05093882	         31.03155621	          1.41837155	         -4.30908799	         -6.89088403	          4.53349219	          0.18845419	         -3.54700298	         -3.70368218	          2.46102136	          0.07957491	          0.00999999	          0.00999999	          0.03555060	          0.03266158	          0.01604777	          0.08495814	          0.03555060	          0.41752375	          0.01000001	          0.02329330	          0.27056304	          0.21851411	          0.00999999	          0.07241887	          0.10174695	          0.01740382	          0.06342992	          0.11517293	          0.05267340	          0.13930155	          0.07890932	          0.05704845	          0.00999999	          0.00999999	          0.01651000	          0.01235400	          0.33654322	
          2.16097981	         -6.26873642	          4.52854161	         -8.20625910	          2.25808659	          0.93547834	          0.01486653	        -12.43033040	         -5.27896142	          3.03220313	        -12.50801903	         10.35789440	         33.19178219	         30.72924300	          1.44298709	         -4.36412522	         -8.06941412	          3.91494738	          0.15985669	         -3.24470796	         -3.98382288	          2.63114647	          0.11111560	          0.00999999	          0.00999999	          0.02877657	          0.03927643	          0.01962890	          0.06876969	          0.02877657	          0.39910467	          0.01235399	          0.01885485	          0.21900830	          0.17687709	          0.00999999	          0.08015499	          0.08235946	          0.01408759	          0.11600688	          0.14377512	          0.04827965	          0.11275818	          0.10384284	          0.04617809	          0.00999999	          0.00999999	          0.01336408	          0.00999999	          0.36766057	
          2.17510386	         -6.33044598	          4.35727394	         -8.09516878	          2.27640920	          0.93496573	          0.01383978	        -11.96329904	         -5.15031025	          2.56849355	        -15.16089968	          9.28500167	         35.27940243	         30.37420160	          1.47639012	         -4.44448694	         -9.20753952	          3.40409487	          0.12325319	         -2.97747654	         -4.27297665	          2.76957660	          0.13682074	          0.00999999	          0.00999999	          0.02329331	          0.06154813	          0.01906661	          0.05566590	          0.02329331	          0.36487025	          0.00999999	          0.01526214	          0.17727712	          0.14317385	          0.00999999	          0.07885804	          0.06666619	          0.01140326	          0.14131545	          0.16201953	          0.04547333	          0.09127255	          0.11460433	          0.03737903	          0.00999999	          0.03970667	          0.01081761	          0.00999999	          0.39466608	
